<?xml version="1.0" encoding="utf-8"?>
<!-- Generator: Adobe Illustrator 16.0.0, SVG Export Plug-In . SVG Version: 6.00 Build 0)  -->
<!DOCTYPE svg PUBLIC "-//W3C//DTD SVG 1.1//EN" "http://www.w3.org/Graphics/SVG/1.1/DTD/svg11.dtd">
<svg version="1.1" id="Layer_1" xmlns="http://www.w3.org/2000/svg" xmlns:xlink="http://www.w3.org/1999/xlink" x="0px" y="0px"
	 width="11.919px" height="11.918px" viewBox="0 0 11.919 11.918" enable-background="new 0 0 11.919 11.918" xml:space="preserve">
<path fill="#6E6D6E" d="M11.452,1.283l-0.856-0.856c-0.545-0.624-1.559-0.624-2.182,0L7.4,1.439L0.543,8.296
	c0,0.079-0.077,0.156-0.077,0.234l-0.468,2.961c0,0.156,0,0.234,0.078,0.391c0.078,0,0.234,0.077,0.312,0.077l2.961-0.468
	c0.078,0,0.155,0,0.234-0.077l6.856-6.857c0-0.035,0.018-0.072,0.035-0.114l0.978-0.978C12.076,2.92,12.076,1.906,11.452,1.283z
	 M4.011,9.894L2.062,7.945l5.61-5.609l1.948,1.948L4.011,9.894z M3.192,10.712l-2.337,0.391l0.389-2.339l0.272-0.272l1.948,1.948
	L3.192,10.712z M10.984,2.92l-0.778,0.779L8.259,1.751l0.778-0.779c0.312-0.311,0.779-0.311,1.091,0l0.856,0.857
	C11.297,2.141,11.297,2.609,10.984,2.92z"/>
</svg>
