<?xml version="1.0" encoding="utf-8"?>
<!-- Generator: Adobe Illustrator 16.0.0, SVG Export Plug-In . SVG Version: 6.00 Build 0)  -->
<!DOCTYPE svg PUBLIC "-//W3C//DTD SVG 1.1//EN" "http://www.w3.org/Graphics/SVG/1.1/DTD/svg11.dtd">
<svg version="1.1" id="Layer_1" xmlns="http://www.w3.org/2000/svg" xmlns:xlink="http://www.w3.org/1999/xlink" x="0px" y="0px"
	 width="11.919px" height="11.918px" viewBox="0 0 11.919 11.918" enable-background="new 0 0 11.919 11.918" xml:space="preserve">
<g>
	<g>
		<g>
			<g>
				<path fill="#6E6D6E" d="M10.206,4.635c-0.078,0-0.234,0-0.312-0.078L7.4,2.063C7.323,1.985,7.323,1.906,7.323,1.751
					S7.4,1.517,7.4,1.439l1.014-1.013c0.623-0.624,1.637-0.624,2.182,0l0.856,0.856c0.624,0.623,0.624,1.637,0,2.182l-1.013,1.013
					C10.439,4.635,10.284,4.635,10.206,4.635z M8.259,1.751l1.947,1.948l0.778-0.779c0.312-0.312,0.312-0.779,0-1.092l-0.856-0.857
					c-0.312-0.311-0.779-0.311-1.091,0L8.259,1.751z"/>
			</g>
			<g>
				<path fill="#6E6D6E" d="M0.388,11.959c-0.077,0-0.233-0.077-0.312-0.077c-0.078-0.156-0.078-0.234-0.078-0.391L0.466,8.53
					c0-0.078,0.077-0.155,0.077-0.234L7.4,1.439c0.156-0.156,0.391-0.156,0.546,0l2.493,2.494c0.079,0.078,0.079,0.156,0.079,0.312
					c0,0.156-0.079,0.234-0.079,0.312l-6.856,6.857c-0.079,0.077-0.156,0.077-0.234,0.077L0.388,11.959
					C0.466,11.959,0.388,11.959,0.388,11.959z M1.244,8.764l-0.389,2.339l2.337-0.391L9.66,4.245L7.712,2.296L1.244,8.764z"/>
			</g>
			<g>
				<path fill="#6E6D6E" d="M4.051,10.791c-0.079,0-0.234,0-0.312-0.079L1.244,8.219c-0.155-0.155-0.155-0.389,0-0.545
					c0.156-0.156,0.391-0.156,0.546,0l2.494,2.493c0.155,0.156,0.155,0.39,0,0.545C4.284,10.712,4.206,10.791,4.051,10.791z"/>
			</g>
		</g>
	</g>
</g>
</svg>
