<?xml version="1.0" encoding="utf-8"?>
<!-- Generator: Adobe Illustrator 16.0.0, SVG Export Plug-In . SVG Version: 6.00 Build 0)  -->
<!DOCTYPE svg PUBLIC "-//W3C//DTD SVG 1.1//EN" "http://www.w3.org/Graphics/SVG/1.1/DTD/svg11.dtd">
<svg version="1.1" id="Layer_1" xmlns="http://www.w3.org/2000/svg" xmlns:xlink="http://www.w3.org/1999/xlink" x="0px" y="0px"
	 width="11.919px" height="11.918px" viewBox="0 0 11.919 11.918" enable-background="new 0 0 11.919 11.918" xml:space="preserve">
<path fill="#6E6D6E" d="M5.959-0.041c-3.317,0-6,2.683-6,6s2.683,6,6,6c3.318,0,6-2.683,6-6S9.277-0.041,5.959-0.041z M11.218,5.606
	H9.47c-0.062-1.867-0.602-3.481-1.423-4.5C9.816,1.881,11.08,3.604,11.218,5.606z M5.606,0.732v4.874H3.155
	C3.246,3.097,4.283,1.051,5.606,0.732z M5.606,6.312v4.874c-1.323-0.318-2.36-2.364-2.451-4.874H5.606z M6.312,11.186V6.312h2.451
	C8.672,8.821,7.636,10.866,6.312,11.186z M6.312,5.606V0.733c1.323,0.319,2.359,2.364,2.451,4.874H6.312z M3.888,1.098
	C3.057,2.104,2.51,3.72,2.447,5.606H0.702C0.841,3.597,2.11,1.869,3.888,1.098z M0.702,6.312h1.746
	c0.064,1.882,0.634,3.515,1.493,4.531C2.137,10.083,0.842,8.342,0.702,6.312z M8.032,10.819c0.829-1.005,1.376-2.621,1.438-4.508
	h1.747C11.079,8.32,9.81,10.048,8.032,10.819z"/>
</svg>
