<?xml version="1.0" encoding="utf-8"?>
<!-- Generator: Adobe Illustrator 16.0.0, SVG Export Plug-In . SVG Version: 6.00 Build 0)  -->
<!DOCTYPE svg PUBLIC "-//W3C//DTD SVG 1.1//EN" "http://www.w3.org/Graphics/SVG/1.1/DTD/svg11.dtd">
<svg version="1.1" id="Layer_1" xmlns="http://www.w3.org/2000/svg" xmlns:xlink="http://www.w3.org/1999/xlink" x="0px" y="0px"
	 width="11.919px" height="11.918px" viewBox="0 0 11.919 11.918" enable-background="new 0 0 11.919 11.918" xml:space="preserve">
<g>
	<g>
		<g>
			<g>
				<g>
					<path fill="#6E6D6E" d="M5.959,11.959c-3.317,0-6-2.683-6-6s2.683-6,6-6c3.318,0,6,2.683,6,6S9.277,11.959,5.959,11.959z
						 M5.959,0.665c-2.894,0-5.293,2.399-5.293,5.294s2.399,5.294,5.293,5.294c2.895,0,5.295-2.399,5.295-5.294
						S8.854,0.665,5.959,0.665z"/>
				</g>
				<g>
					<path fill="#6E6D6E" d="M5.959,11.606c-0.211,0-0.353-0.142-0.353-0.354V0.665c0-0.212,0.142-0.354,0.353-0.354
						c0.213,0,0.354,0.142,0.354,0.354v10.658C6.312,11.465,6.172,11.606,5.959,11.606z"/>
				</g>
				<g>
					<path fill="#6E6D6E" d="M11.254,6.312H0.666c-0.213,0-0.354-0.141-0.354-0.353s0.141-0.353,0.354-0.353h10.658
						c0.212,0,0.354,0.141,0.354,0.353S11.465,6.312,11.254,6.312z"/>
				</g>
				<g>
					<path fill="#6E6D6E" d="M5.254,11.817C3.63,11.253,2.43,8.854,2.43,5.959c0-2.965,1.2-5.364,2.824-5.858l1.059,0.211
						c0,0.212-0.141,0.354-0.354,0.354c-1.553,0-2.823,2.399-2.823,5.294s1.271,5.294,2.823,5.294c0.213,0,0.354,0.142,0.354,0.354
						L5.254,11.817z"/>
				</g>
				<g>
					<path fill="#6E6D6E" d="M5.606,11.606c0-0.212,0.142-0.354,0.353-0.354c1.553,0,2.824-2.399,2.824-5.294
						S7.512,0.665,5.959,0.665c-0.211,0-0.353-0.142-0.353-0.354l0.918-0.282c1.694,0.424,2.964,2.895,2.964,5.93
						c0,2.965-1.199,5.364-2.822,5.858L5.606,11.606z"/>
				</g>
			</g>
		</g>
	</g>
</g>
</svg>
