<?xml version="1.0" encoding="utf-8"?>
<!-- Generator: Adobe Illustrator 16.0.0, SVG Export Plug-In . SVG Version: 6.00 Build 0)  -->
<!DOCTYPE svg PUBLIC "-//W3C//DTD SVG 1.1//EN" "http://www.w3.org/Graphics/SVG/1.1/DTD/svg11.dtd">
<svg version="1.1" xmlns="http://www.w3.org/2000/svg" xmlns:xlink="http://www.w3.org/1999/xlink" x="0px" y="0px" width="16px"
	 height="16px" viewBox="0 0 16 16" enable-background="new 0 0 16 16" xml:space="preserve">
<g id="PRINCIPAL">
</g>
<g id="CLIQUE">
</g>
<g id="MATERIAL">
	<g>
		<g>
			<path fill="#6D6D6D" d="M12.992,13.917h-9.21C1.648,13.781,0,12.036,0,9.942c0-2.004,1.48-3.68,3.43-3.965
				C3.991,3.7,6.023,2.083,8.391,2.083c2.75,0,5,2.182,5.118,4.91C14.974,7.457,16,8.826,16,10.389c0,1.749-1.249,3.23-2.969,3.522
				L12.992,13.917z M8.391,3.029c-2.029,0-3.755,1.458-4.104,3.466L4.222,6.866L3.847,6.886C2.22,6.976,0.945,8.318,0.945,9.942
				c0,1.622,1.232,2.923,2.868,3.03l9.098-0.001c1.245-0.229,2.145-1.309,2.145-2.582c0-1.247-0.891-2.327-2.119-2.567L12.54,7.744
				l0.03-0.541C12.569,4.908,10.695,3.029,8.391,3.029z"/>
		</g>
		<g>
			<g>
				<polyline fill="none" stroke="#6D6D6D" stroke-width="0.8" stroke-miterlimit="10" points="5.744,9.009 8,11.227 10.256,9.009 
									"/>
			</g>
			<line fill="none" stroke="#6D6D6D" stroke-width="0.8" stroke-miterlimit="10" x1="8" y1="11.227" x2="8" y2="4.772"/>
		</g>
	</g>
</g>
<g id="REFERENCIAS">
</g>
<g id="MENU">
</g>
<g id="HOVER">
</g>
<g id="MODAL">
</g>
<g id="LOADING">
</g>
</svg>
