<?xml version="1.0" encoding="utf-8"?>
<!-- Generator: Adobe Illustrator 16.0.0, SVG Export Plug-In . SVG Version: 6.00 Build 0)  -->
<!DOCTYPE svg PUBLIC "-//W3C//DTD SVG 1.1//EN" "http://www.w3.org/Graphics/SVG/1.1/DTD/svg11.dtd">
<svg version="1.1" id="Layer_1" xmlns="http://www.w3.org/2000/svg" xmlns:xlink="http://www.w3.org/1999/xlink" x="0px" y="0px"
	 width="11.919px" height="11.918px" viewBox="0 0 11.919 11.918" enable-background="new 0 0 11.919 11.918" xml:space="preserve">
<g>
	<g>
		<g>
			<g>
				<path fill="#6E6D6E" d="M10.9,4.9H1.018c-0.212,0-0.353-0.141-0.353-0.353V3.135c0-0.564,0.494-1.059,1.06-1.059h8.471
					c0.565,0,1.058,0.495,1.058,1.059v1.412C11.253,4.688,11.112,4.9,10.9,4.9z M1.371,4.194h9.178V3.135
					c0-0.212-0.142-0.353-0.354-0.353H1.725c-0.212,0-0.354,0.141-0.354,0.353V4.194z"/>
			</g>
			<g>
				<path fill="#6E6D6E" d="M8.783,11.959H3.136c-0.989,0-1.765-0.776-1.765-1.765V4.547c0-0.212,0.142-0.353,0.354-0.353
					s0.352,0.141,0.352,0.353v5.647c0,0.565,0.494,1.059,1.06,1.059h5.647c0.564,0,1.059-0.493,1.059-1.059V4.547
					c0-0.212,0.142-0.353,0.354-0.353s0.354,0.141,0.354,0.353v5.647C10.549,11.183,9.771,11.959,8.783,11.959z"/>
			</g>
			<g>
				<path fill="#6E6D6E" d="M7.724,2.43H7.019V1.018c0-0.212-0.141-0.354-0.353-0.354H5.254C5.042,0.665,4.9,0.806,4.9,1.018V2.43
					H4.194V1.018c0-0.565,0.494-1.059,1.06-1.059h1.412c0.564,0,1.058,0.494,1.058,1.059V2.43z"/>
			</g>
			<g>
				<path fill="#6E6D6E" d="M3.841,9.842c-0.21,0-0.352-0.142-0.352-0.354V6.665c0-0.212,0.142-0.352,0.352-0.352
					c0.212,0,0.354,0.14,0.354,0.352v2.824C4.194,9.7,4.053,9.842,3.841,9.842z"/>
			</g>
			<g>
				<path fill="#6E6D6E" d="M5.959,9.842c-0.212,0-0.354-0.142-0.354-0.354V6.665c0-0.212,0.142-0.352,0.354-0.352
					s0.354,0.14,0.354,0.352v2.824C6.312,9.7,6.171,9.842,5.959,9.842z"/>
			</g>
			<g>
				<path fill="#6E6D6E" d="M8.077,9.842c-0.212,0-0.354-0.142-0.354-0.354V6.665c0-0.212,0.142-0.352,0.354-0.352
					s0.354,0.14,0.354,0.352v2.824C8.431,9.7,8.289,9.842,8.077,9.842z"/>
			</g>
		</g>
	</g>
</g>
</svg>
