<?xml version="1.0" encoding="utf-8"?>
<!-- Generator: Adobe Illustrator 16.0.0, SVG Export Plug-In . SVG Version: 6.00 Build 0)  -->
<!DOCTYPE svg PUBLIC "-//W3C//DTD SVG 1.1//EN" "http://www.w3.org/Graphics/SVG/1.1/DTD/svg11.dtd">
<svg version="1.1" xmlns="http://www.w3.org/2000/svg" xmlns:xlink="http://www.w3.org/1999/xlink" x="0px" y="0px" width="64px"
	 height="42px" viewBox="0 0 64 42" enable-background="new 0 0 64 42" xml:space="preserve">
<g id="MATERIAL">
	<g>
		<g>
			<path fill="none" stroke="#6D6D6D" stroke-miterlimit="10" d="M33.225,39.534c-1.65,0-4.35,0-6,0H15.614c-1.65,0-3-1.35-3-3
				V5.466c0-1.65,1.35-3,3-3h12.972c1.65,0,3,1.35,3,3V7.62c0,1.65,1.35,3,3,3h14.001c1.65,0,3,1.35,3,3v4.01c0,1.65,0,4.35,0,6
				v12.904c0,1.65-1.35,3-3,3H33.225z"/>
		</g>
	</g>
</g>
<g id="LOADING">
</g>
</svg>
